<?xml version="1.0" standalone="no"?><!DOCTYPE svg PUBLIC "-//W3C//DTD SVG 1.1//EN" "http://www.w3.org/Graphics/SVG/1.1/DTD/svg11.dtd"><svg t="1490376446128" class="icon" style="" viewBox="0 0 1024 1024" version="1.1" xmlns="http://www.w3.org/2000/svg" p-id="8638" xmlns:xlink="http://www.w3.org/1999/xlink" width="200" height="200"><defs><style type="text/css"></style></defs><path d="M512 936.533333c-4.266667 0-10.666667-2.133333-14.933333-4.266667-4.266667-2.133333-4.266667-2.133333-362.666667-317.866667-55.466667-53.333333-87.466667-125.866667-87.466667-200.533333 0-76.8 29.866667-147.2 85.333333-202.666667 55.466667-55.466667 117.333333-83.2 181.333333-83.2 64 0 130.133333 27.733333 198.4 83.2 68.266667-55.466667 134.4-83.2 198.4-83.2 64 0 125.866667 27.733333 181.333333 83.2 55.466667 53.333333 85.333333 125.866667 85.333333 202.666667 0 74.666667-29.866667 147.2-85.333333 200.533333-362.666667 317.866667-362.666667 317.866667-371.2 320C518.4 936.533333 516.266667 936.533333 512 936.533333zM315.733333 194.133333c-46.933333 0-91.733333 21.333333-136.533333 64-42.666667 42.666667-66.133333 98.133333-66.133333 155.733333 0 57.6 23.466667 113.066667 66.133333 153.6 217.6 192 302.933333 266.666667 334.933333 294.4 32-27.733333 117.333333-102.4 337.066667-294.4 40.533333-40.533333 64-93.866667 64-153.6 0-57.6-23.466667-113.066667-66.133333-155.733333-44.8-42.666667-89.6-64-136.533333-64-53.333333 0-113.066667 27.733333-177.066667 85.333333-12.8 10.666667-29.866667 10.666667-42.666667 0C426.666667 221.866667 369.066667 194.133333 315.733333 194.133333z" p-id="8639"></path></svg>