<?xml version="1.0" standalone="no"?><!DOCTYPE svg PUBLIC "-//W3C//DTD SVG 1.1//EN" "http://www.w3.org/Graphics/SVG/1.1/DTD/svg11.dtd"><svg t="1490376839838" class="icon" style="" viewBox="0 0 1085 1024" version="1.1" xmlns="http://www.w3.org/2000/svg" p-id="2853" xmlns:xlink="http://www.w3.org/1999/xlink" width="211.9140625" height="200"><defs><style type="text/css"></style></defs><path d="M6.035713 1017.964263" p-id="2854"></path><path d="M1075.213204 276.325093 778.302224 6.536703c-4.62941-4.205903-10.659112-6.536703-16.913141-6.536703L120.222803 0c-21.94091 0-39.791602 17.299428-39.791602 38.56333L80.431201 968.442047c0 21.263901 17.850692 38.56333 39.791602 38.56333l920.995119 0c18.455272 0 34.91875-12.334029 40.968571-30.692729 0.836956-2.539033 1.263481-5.19677 1.263481-7.870601L1083.449973 294.937294C1083.449973 287.849327 1080.45826 281.090307 1075.213204 276.325093zM789.330522 84.518425l214.274699 194.700804-216.176962-2.136651L789.330522 84.518425zM130.729009 956.707568 130.729009 50.297808l608.638688 0-2.351926 238.022306c-0.208233 21.261889 16.919177 38.731324 38.181066 38.941569l256.361893 2.532998c0.0845 0.001006 0.169001 0.001006 0.253501 0.001006 0.449662 0 0.896307-0.013077 1.339934-0.036214l0 626.94709L130.729009 956.706562z" p-id="2855"></path><path d="M298.382669 328.916481l238.833107 0c4.62941 0 8.39571-3.778371 8.39571-8.423877l0-31.691643c0-4.645506-3.7663-8.424883-8.39571-8.424883L298.382669 280.376078c-4.630416 0-8.397722 3.779377-8.397722 8.424883l0 31.691643C289.984947 325.13811 293.752253 328.916481 298.382669 328.916481z" p-id="2856"></path><path d="M858.258638 450.771975 306.840749 450.771975c-10.502182 0-18.729898 3.699907-18.729898 8.423877l0 31.692649c0 4.722964 8.227715 8.423877 18.729898 8.423877l551.417889 0c10.499164 0 18.722856-3.699907 18.722856-8.423877l0-31.692649C876.981494 454.471882 868.756797 450.771975 858.258638 450.771975z" p-id="2857"></path><path d="M858.303906 605.474956 308.274236 605.474956c-10.477033 0-18.68463 3.700913-18.68463 8.424883l0 31.691643c0 4.721958 8.207596 8.421865 18.68463 8.421865l550.02967 0c10.47301 0 18.676582-3.699907 18.676582-8.421865l0-31.691643C876.981494 609.175868 868.777922 605.474956 858.303906 605.474956z" p-id="2858"></path><path d="M858.212364 769.183256 305.407261 769.183256c-10.528337 0-18.776172 3.700913-18.776172 8.424883l0 31.692649c0 4.721958 8.247835 8.421865 18.776172 8.421865L858.212364 817.722653c10.525319 0 18.76913-3.699907 18.76913-8.421865l0-31.692649C876.981494 772.883163 868.736678 769.183256 858.212364 769.183256z" p-id="2859"></path></svg>